<?xml version="1.0" encoding="UTF-8"?> <svg xmlns="http://www.w3.org/2000/svg" id="Layer_1" data-name="Layer 1" viewBox="0 0 400 245"><defs><style>.cls-1{fill:#185683;}.cls-2{fill:#098abd;}</style></defs><title>memsql</title><g id="Word_Mark" data-name="Word Mark"><path id="L" class="cls-1" d="M372.3161,142.10925V102.90036h7.1114v32.99441h17.68243v6.21448Z"></path><path id="Q" class="cls-1" d="M340.85928,143.07025a26.1142,26.1142,0,0,1-8.52088-1.40946,20.56,20.56,0,0,1-6.79107-4.03622,17.16832,17.16832,0,0,1-4.42062-6.34261,24.04483,24.04483,0,0,1-1.53762-8.77715,23.26593,23.26593,0,0,1,1.60167-8.585,19.35384,19.35384,0,0,1,4.48468-6.34262,20.19471,20.19471,0,0,1,6.79106-4.16434,24.53435,24.53435,0,0,1,8.52088-1.47354,24.17213,24.17213,0,0,1,8.45683,1.47354,19.53342,19.53342,0,0,1,6.727,4.16434,18.2835,18.2835,0,0,1,4.42063,6.34262,22.03168,22.03168,0,0,1,1.60167,8.585,20.0696,20.0696,0,0,1-2.30639,9.73815,18.01556,18.01556,0,0,1-6.21449,6.21448,7.00362,7.00362,0,0,1-.961.51254l8.20054,2.6908v5.38161Zm.19219-34.98047a14.59186,14.59186,0,0,0-5.702,1.08913,12.955,12.955,0,0,0-4.35654,3.01114,13.35465,13.35465,0,0,0-2.819,4.42061,18.1525,18.1525,0,0,0-.961,5.95822,18.53924,18.53924,0,0,0,.961,6.02228,12.7346,12.7346,0,0,0,7.04735,7.36768,15.30254,15.30254,0,0,0,11.33983,0,12.94913,12.94913,0,0,0,7.17549-7.36768,18.56091,18.56091,0,0,0,1.025-6.02228,18.15244,18.15244,0,0,0-.961-5.95821,13.18658,13.18658,0,0,0-2.75486-4.42061,14.78346,14.78346,0,0,0-4.29249-3.01114,13.52168,13.52168,0,0,0-5.702-1.08914Z"></path><path id="S" class="cls-1" d="M298.12675,143.07025a20.61381,20.61381,0,0,1-7.55988-1.47353,15.46656,15.46656,0,0,1-6.08635-4.29248l-.51252-.5766,5.57382-4.48468.51252.70474a10.18326,10.18326,0,0,0,8.1365,4.10027,11.69284,11.69284,0,0,0,2.56267-.32033,7.4722,7.4722,0,0,0,2.30639-1.02507,6.39368,6.39368,0,0,0,1.66572-1.79387,5.159,5.159,0,0,0,.64067-2.49861,4.18342,4.18342,0,0,0-.64067-2.43454,6.62731,6.62731,0,0,0-1.79386-1.7298,12.82935,12.82935,0,0,0-2.819-1.28134c-1.08914-.3844-2.30639-.7688-3.58774-1.1532s-2.56268-.83287-3.844-1.3454a12.28387,12.28387,0,0,1-3.52368-2.11421,9.77135,9.77135,0,0,1-2.56267-3.20334,11.47279,11.47279,0,0,1,.32033-9.86629,11.865,11.865,0,0,1,3.33149-3.58774,13.71228,13.71228,0,0,1,4.61281-2.05014,19.58167,19.58167,0,0,1,5.06128-.64067,18.50241,18.50241,0,0,1,6.79106,1.21727,13.43559,13.43559,0,0,1,5.12535,3.33148l.51253.51253-5.12535,4.74095-.51253-.70474a8.06087,8.06087,0,0,0-2.883-2.3064,9.69183,9.69183,0,0,0-4.16434-.89694,11.131,11.131,0,0,0-2.49863.32034,5.94453,5.94453,0,0,0-2.24233,1.02506,5.65725,5.65725,0,0,0-1.60167,1.66574,4.48087,4.48087,0,0,0-.5766,2.37047,4.37881,4.37881,0,0,0,.51253,2.17827,6.68908,6.68908,0,0,0,1.47352,1.53761,10.20724,10.20724,0,0,0,2.37046,1.1532c.961.32034,2.05015.70474,3.13929,1.02507,1.34539.3844,2.69082.83287,4.1003,1.3454a16.63343,16.63343,0,0,1,3.97215,2.05014,11.03968,11.03968,0,0,1,2.947,3.26741,9.942,9.942,0,0,1,1.1532,4.99721,11.37835,11.37835,0,0,1-1.21729,5.44568,11.878,11.878,0,0,1-3.26739,3.844,13.782,13.782,0,0,1-4.67687,2.24233,18.694,18.694,0,0,1-5.12534.70474Z"></path><path id="M_2" data-name="M 2" class="cls-1" d="M271.79526,142.10925V109.05078L255.9067,142.10925H253.28l-15.76044-32.93034v32.93034H234.188v-39.337h4.0362l16.46518,34.40388,16.4011-34.40388h4.03621v39.337Z"></path><path id="E" class="cls-1" d="M198.631,142.10925v-39.337H223.8733v2.883H201.96244V120.1984H222.592v3.07521H201.96244v15.95264h22.80779v2.883Z"></path><path id="M_1" data-name="M 1" class="cls-1" d="M184.60035,142.10925V109.05078l-15.88856,33.05847h-2.62674l-15.76044-32.93034v32.93034h-3.33148v-39.337h4.0362l16.4011,34.40388,16.46518-34.40388h4.0362v39.337Z"></path></g><g id="Logo_Mark" data-name="Logo Mark"><path id="Left_outer_wing" data-name="Left outer wing" class="cls-1" d="M42.82049,93.29034a3.39925,3.39925,0,0,0-2.3064,1.47354l-37.351,53.688a3.24344,3.24344,0,0,0-.51254,2.69081,3.595,3.595,0,0,0,5.31755,1.85793l33.05847-21.20611a5.43657,5.43657,0,0,1,1.66574-.70473V93.29034Z"></path><path id="Left_inner_wing" data-name="Left inner wing" class="cls-2" d="M65.69235,120.1984A3.50518,3.50518,0,0,1,63.45,118.78893L46.4723,94.69981A3.568,3.568,0,0,0,44.23,93.29034v37.60722a6.32931,6.32931,0,0,1,2.81894.70473l16.5933,10.8273a6.33473,6.33473,0,0,0,2.11421.70473V120.1984Z"></path><path id="Right_inner_wing" data-name="Right inner wing" class="cls-1" d="M88.5642,93.29034a3.54521,3.54521,0,0,0-2.30641,1.40947L69.28008,118.78893a3.31154,3.31154,0,0,1-2.30641,1.40947v22.93591a5.4441,5.4441,0,0,0,2.17827-.70473l16.5933-10.82729a5.00111,5.00111,0,0,1,2.81894-.70474V93.29034Z"></path><path id="Right_wing" data-name="Right wing" class="cls-2" d="M129.50288,148.45186,92.216,94.69981a3.63734,3.63734,0,0,0-2.30641-1.47354v37.79942a5.43635,5.43635,0,0,1,1.66574.70474l33.05848,21.20611a3.49956,3.49956,0,0,0,5.31755-1.85794,2.67179,2.67179,0,0,0-.44847-2.62674Z"></path></g></svg> 